<svg width="360" height="90" viewBox="0 0 360 90" fill="none" xmlns="http://www.w3.org/2000/svg">
  <defs>
    <radialGradient id="oceanFill" cx="40%" cy="38%" r="60%">
      <stop offset="0%" stop-color="#b8ce67" stop-opacity="0.22"/>
      <stop offset="100%" stop-color="#2cb4e2" stop-opacity="0.06"/>
    </radialGradient>
  </defs>

  <!-- GLOBE MARK -->
  <g transform="translate(6,0)">
    <circle cx="40" cy="45" r="34" fill="url(#oceanFill)"/>
    <circle cx="40" cy="45" r="34" stroke="#1a4a5c" stroke-width="1.8" fill="none"/>
    <ellipse cx="40" cy="45" rx="34" ry="11"  stroke="#1a4a5c" stroke-width="1"   fill="none" opacity="0.65"/>
    <ellipse cx="40" cy="30" rx="25" ry="7.5" stroke="#1a4a5c" stroke-width="0.65" fill="none" opacity="0.45"/>
    <ellipse cx="40" cy="60" rx="25" ry="7.5" stroke="#1a4a5c" stroke-width="0.65" fill="none" opacity="0.45"/>
    <ellipse cx="40" cy="45" rx="13" ry="34" stroke="#1a4a5c" stroke-width="0.9" fill="none" opacity="0.6"/>
    <line x1="40" y1="11" x2="40" y2="79" stroke="#1a4a5c" stroke-width="0.7" opacity="0.4"/>
    <!-- Data nodes -->
    <circle cx="32" cy="53" r="5"   fill="#e3c267"/>
    <circle cx="32" cy="53" r="2.4" fill="#1a4a5c"/>
    <circle cx="54" cy="33" r="3.2" fill="#e3c267" opacity="0.85"/>
    <circle cx="54" cy="33" r="1.5" fill="#1a4a5c"/>
    <circle cx="22" cy="37" r="2.5" fill="#e3c267" opacity="0.6"/>
    <circle cx="22" cy="37" r="1.1" fill="#1a4a5c"/>
    <!-- Connection lines -->
    <line x1="32" y1="53" x2="54" y2="33" stroke="#e3c267" stroke-width="1.3" stroke-dasharray="3 2.5" opacity="0.8"/>
    <line x1="32" y1="53" x2="22" y2="37" stroke="#e3c267" stroke-width="1"   stroke-dasharray="2.5 2" opacity="0.55"/>
    <line x1="54" y1="33" x2="22" y2="37" stroke="#e3c267" stroke-width="0.8" stroke-dasharray="2 2.5" opacity="0.35"/>
  </g>

  <!-- WORDMARK -->
  <text x="100" y="56" font-family="Georgia, 'Times New Roman', serif" font-size="36" fill="#1a4a5c" letter-spacing="-0.8">Atlas</text>
  <text x="222" y="56" font-family="Georgia, 'Times New Roman', serif" font-size="36" fill="#2cb4e2" letter-spacing="-0.8">ESG</text>

  <!-- Tagline -->
  <text x="101" y="74" font-family="Arial, sans-serif" font-size="8.5" fill="#6a9aaa" letter-spacing="3.5" font-weight="600">SUSTAINABILITY INTELLIGENCE</text>
  <line x1="100" y1="80" x2="312" y2="80" stroke="#d4ecf5" stroke-width="0.8"/>
</svg>
